# xmcd
#
# Track frame offsets:
#	150
#	17227
#	35902
#	56675
#	75422
#	92117
#	111565
#	127882
#	144707
#	163060
#	187877
#	207380
#	219590
#	236509
#	257607
#	270080
#	285330
#	301207
#
# Disc length: 4259
#
# Revision: 1
# Processed by: cddbd v1.5.1PL0 Copyright (c) Steve Scherf et al.
# Submitted via: audiograbber 1.82.02
# Normalized: r0:DSETVAR1
#
DISCID=fc10a112
DTITLE=Various Artist - Sweet Soul Harmonies
DYEAR=1900
DGENRE=
TTITLE0=Colour Me Badd - I Wanna Sex You Up
TTITLE1=Jeremy Jordan - The Right Kind Of Love
TTITLE2=Charles and Eddie - Would I Lie To You
TTITLE3=Zhane - Hey Mr DJ
TTITLE4=Gabrielle - Dreams
TTITLE5=Jon Secada - Just Another Day
TTITLE6=Earth, Wind and Fire - After The Love Has Gone
TTITLE7=S.W.V. - Right Here
TTITLE8=Kulcha - Soul Feeling
TTITLE9=The Chimes - Still Haven't Found What I'm Looking For
TTITLE10=Shanice - I Love Your Smile
TTITLE11=The Temptations - My Girl
TTITLE12=Randy Crawford - Rainy Night In Georgia
TTITLE13=Gladys Knight and The Pips - Midnight Train To Georgia
TTITLE14=Sam Cooke - You Send Me
TTITLE15=Harold Melvin and The Bluenotes - If You Don't Know Me By Now
TTITLE16=Maxi Priest - Close To You
TTITLE17=Marvin Gaye - Sexual Healing
EXTD=
EXTT0=
EXTT1=
EXTT2=
EXTT3=
EXTT4=
EXTT5=
EXTT6=
EXTT7=
EXTT8=
EXTT9=
EXTT10=
EXTT11=
EXTT12=
EXTT13=
EXTT14=
EXTT15=
EXTT16=
EXTT17=
PLAYORDER=
